<svg width="163" height="152" viewBox="0 0 163 152" fill="none" xmlns="http://www.w3.org/2000/svg">
<rect width="163" height="152" fill="white"/>
<path d="M20.06 70.78L24.92 83.32C25.12 83.8 25.3333 84.1333 25.56 84.32C25.8 84.4933 26.02 84.5867 26.22 84.6V85C25.8733 84.9733 25.4533 84.96 24.96 84.96C24.48 84.9467 23.9867 84.94 23.48 84.94C22.8933 84.94 22.3467 84.9467 21.84 84.96C21.3333 84.96 20.92 84.9733 20.6 85V84.6C21.28 84.5733 21.7133 84.46 21.9 84.26C22.0867 84.0467 22.0467 83.6 21.78 82.92L18.26 73.42L18.62 72.98L15.42 81.28C15.1667 81.9467 15.0133 82.4933 14.96 82.92C14.9067 83.3467 14.94 83.68 15.06 83.92C15.18 84.16 15.38 84.3333 15.66 84.44C15.94 84.5333 16.2867 84.5867 16.7 84.6V85C16.2733 84.9733 15.86 84.96 15.46 84.96C15.06 84.9467 14.66 84.94 14.26 84.94C13.9667 84.94 13.6867 84.9467 13.42 84.96C13.1667 84.96 12.94 84.9733 12.74 85V84.6C13.0333 84.5333 13.32 84.36 13.6 84.08C13.8933 83.8 14.1733 83.3133 14.44 82.62L19.02 70.78C19.18 70.7933 19.3533 70.8 19.54 70.8C19.7267 70.8 19.9 70.7933 20.06 70.78ZM21.8 79.24V79.64H15.84L16.04 79.24H21.8ZM32.3348 70.84V71.24C31.8815 71.2533 31.5348 71.3067 31.2948 71.4C31.0682 71.48 30.9148 71.64 30.8348 71.88C30.7548 72.1067 30.7148 72.4667 30.7148 72.96V83.04C30.7148 83.4667 30.7482 83.7933 30.8148 84.02C30.8948 84.2333 31.0348 84.3733 31.2348 84.44C31.4348 84.5067 31.7215 84.54 32.0948 84.54H33.2348C33.7548 84.54 34.2082 84.4467 34.5948 84.26C34.9948 84.0733 35.3415 83.8 35.6348 83.44C35.9282 83.08 36.1682 82.64 36.3548 82.12C36.5415 81.5867 36.6748 80.9867 36.7548 80.32H37.2148C37.1748 80.76 37.1548 81.3333 37.1548 82.04C37.1548 82.3333 37.1615 82.7533 37.1748 83.3C37.2015 83.8467 37.2415 84.4133 37.2948 85C36.6148 84.9733 35.8482 84.96 34.9948 84.96C34.1415 84.9467 33.3815 84.94 32.7148 84.94C32.3948 84.94 31.9882 84.94 31.4948 84.94C31.0015 84.94 30.4615 84.9467 29.8748 84.96C29.3015 84.96 28.7148 84.9667 28.1148 84.98C27.5282 84.98 26.9682 84.9867 26.4348 85V84.6C26.8748 84.5733 27.2015 84.52 27.4148 84.44C27.6415 84.36 27.7882 84.2 27.8548 83.96C27.9348 83.72 27.9748 83.36 27.9748 82.88V72.96C27.9748 72.4667 27.9348 72.1067 27.8548 71.88C27.7882 71.64 27.6415 71.48 27.4148 71.4C27.2015 71.3067 26.8748 71.2533 26.4348 71.24V70.84C26.7682 70.8533 27.1948 70.8667 27.7148 70.88C28.2348 70.8933 28.7948 70.9 29.3948 70.9C29.9415 70.9 30.4815 70.8933 31.0148 70.88C31.5482 70.8667 31.9882 70.8533 32.3348 70.84ZM48.9184 70.84C48.8651 71.4533 48.8251 72.0533 48.7984 72.64C48.7851 73.2133 48.7784 73.6533 48.7784 73.96C48.7784 74.2667 48.7851 74.5533 48.7984 74.82C48.8118 75.0867 48.8251 75.32 48.8384 75.52H48.3784C48.1918 74.4533 47.9651 73.62 47.6984 73.02C47.4318 72.4067 47.0784 71.9667 46.6384 71.7C46.2118 71.4333 45.6451 71.3 44.9384 71.3H44.2984V82.7C44.2984 83.2467 44.3451 83.6533 44.4384 83.92C44.5451 84.1867 44.7518 84.3667 45.0584 84.46C45.3651 84.54 45.8118 84.5867 46.3984 84.6V85C45.9984 84.9733 45.4784 84.96 44.8384 84.96C44.1984 84.9467 43.5451 84.94 42.8784 84.94C42.1851 84.94 41.5318 84.9467 40.9184 84.96C40.3184 84.96 39.8318 84.9733 39.4584 85V84.6C40.0318 84.5867 40.4718 84.54 40.7784 84.46C41.0851 84.3667 41.2918 84.1867 41.3984 83.92C41.5051 83.6533 41.5584 83.2467 41.5584 82.7V71.3H40.8984C40.2051 71.3 39.6384 71.4333 39.1984 71.7C38.7584 71.9667 38.4051 72.4067 38.1384 73.02C37.8718 73.62 37.6518 74.4533 37.4784 75.52H37.0184C37.0451 75.32 37.0584 75.0867 37.0584 74.82C37.0718 74.5533 37.0784 74.2667 37.0784 73.96C37.0784 73.6533 37.0651 73.2133 37.0384 72.64C37.0251 72.0533 36.9918 71.4533 36.9384 70.84C37.5251 70.8533 38.1718 70.8667 38.8784 70.88C39.5851 70.8933 40.2918 70.9 40.9984 70.9C41.7051 70.9 42.3518 70.9 42.9384 70.9C43.5118 70.9 44.1518 70.9 44.8584 70.9C45.5651 70.9 46.2718 70.8933 46.9784 70.88C47.6851 70.8667 48.3318 70.8533 48.9184 70.84ZM55.4311 70.78L60.2911 83.32C60.4911 83.8 60.7044 84.1333 60.9311 84.32C61.1711 84.4933 61.3911 84.5867 61.5911 84.6V85C61.2444 84.9733 60.8244 84.96 60.3311 84.96C59.8511 84.9467 59.3578 84.94 58.8511 84.94C58.2644 84.94 57.7178 84.9467 57.2111 84.96C56.7044 84.96 56.2911 84.9733 55.9711 85V84.6C56.6511 84.5733 57.0844 84.46 57.2711 84.26C57.4578 84.0467 57.4178 83.6 57.1511 82.92L53.6311 73.42L53.9911 72.98L50.7911 81.28C50.5378 81.9467 50.3844 82.4933 50.3311 82.92C50.2778 83.3467 50.3111 83.68 50.4311 83.92C50.5511 84.16 50.7511 84.3333 51.0311 84.44C51.3111 84.5333 51.6578 84.5867 52.0711 84.6V85C51.6444 84.9733 51.2311 84.96 50.8311 84.96C50.4311 84.9467 50.0311 84.94 49.6311 84.94C49.3378 84.94 49.0578 84.9467 48.7911 84.96C48.5378 84.96 48.3111 84.9733 48.1111 85V84.6C48.4044 84.5333 48.6911 84.36 48.9711 84.08C49.2644 83.8 49.5444 83.3133 49.8111 82.62L54.3911 70.78C54.5511 70.7933 54.7244 70.8 54.9111 70.8C55.0978 70.8 55.2711 70.7933 55.4311 70.78ZM57.1711 79.24V79.64H51.2111L51.4111 79.24H57.1711ZM72.2659 70.84C72.2126 71.4133 72.1726 71.9667 72.1459 72.5C72.1326 73.0333 72.1259 73.44 72.1259 73.72C72.1259 74.0267 72.1326 74.3133 72.1459 74.58C72.1593 74.8467 72.1726 75.08 72.1859 75.28H71.7259C71.5793 74.28 71.3793 73.4933 71.1259 72.92C70.8726 72.3333 70.5326 71.92 70.1059 71.68C69.6793 71.4267 69.1126 71.3 68.4059 71.3H67.5459C67.1459 71.3 66.8393 71.3333 66.6259 71.4C66.4126 71.4667 66.2659 71.6067 66.1859 71.82C66.1193 72.0333 66.0859 72.36 66.0859 72.8V82.8C66.0859 83.3067 66.1393 83.6867 66.2459 83.94C66.3526 84.1933 66.5593 84.36 66.8659 84.44C67.1726 84.52 67.6126 84.5667 68.1859 84.58V85C67.7993 84.9733 67.2993 84.96 66.6859 84.96C66.0726 84.9467 65.4393 84.94 64.7859 84.94C64.2259 84.94 63.6859 84.9467 63.1659 84.96C62.6459 84.96 62.1926 84.9733 61.8059 85V84.6C62.2459 84.5733 62.5726 84.52 62.7859 84.44C63.0126 84.36 63.1593 84.2 63.2259 83.96C63.3059 83.72 63.3459 83.36 63.3459 82.88V72.96C63.3459 72.4667 63.3059 72.1067 63.2259 71.88C63.1593 71.64 63.0126 71.48 62.7859 71.4C62.5726 71.3067 62.2459 71.2533 61.8059 71.24V70.84C62.3393 70.8533 62.8993 70.8667 63.4859 70.88C64.0859 70.88 64.6726 70.8867 65.2459 70.9C65.8326 70.9 66.3726 70.9 66.8659 70.9C67.3726 70.9 67.7793 70.9 68.0859 70.9C68.6993 70.9 69.3926 70.9 70.1659 70.9C70.9526 70.8867 71.6526 70.8667 72.2659 70.84ZM69.2459 77.8C69.2459 77.8 69.2459 77.8667 69.2459 78C69.2459 78.1333 69.2459 78.2 69.2459 78.2H65.4859C65.4859 78.2 65.4859 78.1333 65.4859 78C65.4859 77.8667 65.4859 77.8 65.4859 77.8H69.2459ZM69.7059 75.16C69.6526 75.92 69.6259 76.5 69.6259 76.9C69.6393 77.3 69.6459 77.6667 69.6459 78C69.6459 78.3333 69.6526 78.7 69.6659 79.1C69.6793 79.5 69.7126 80.08 69.7659 80.84H69.3059C69.2526 80.3867 69.1526 79.96 69.0059 79.56C68.8593 79.1467 68.6326 78.82 68.3259 78.58C68.0326 78.3267 67.6059 78.2 67.0459 78.2V77.8C67.4593 77.8 67.7993 77.7133 68.0659 77.54C68.3326 77.3667 68.5393 77.1467 68.6859 76.88C68.8459 76.6 68.9659 76.3133 69.0459 76.02C69.1393 75.7133 69.2059 75.4267 69.2459 75.16H69.7059ZM78.81 70.78L83.67 83.32C83.87 83.8 84.0833 84.1333 84.31 84.32C84.55 84.4933 84.77 84.5867 84.97 84.6V85C84.6233 84.9733 84.2033 84.96 83.71 84.96C83.23 84.9467 82.7367 84.94 82.23 84.94C81.6433 84.94 81.0967 84.9467 80.59 84.96C80.0833 84.96 79.67 84.9733 79.35 85V84.6C80.03 84.5733 80.4633 84.46 80.65 84.26C80.8367 84.0467 80.7967 83.6 80.53 82.92L77.01 73.42L77.37 72.98L74.17 81.28C73.9167 81.9467 73.7633 82.4933 73.71 82.92C73.6567 83.3467 73.69 83.68 73.81 83.92C73.93 84.16 74.13 84.3333 74.41 84.44C74.69 84.5333 75.0367 84.5867 75.45 84.6V85C75.0233 84.9733 74.61 84.96 74.21 84.96C73.81 84.9467 73.41 84.94 73.01 84.94C72.7167 84.94 72.4367 84.9467 72.17 84.96C71.9167 84.96 71.69 84.9733 71.49 85V84.6C71.7833 84.5333 72.07 84.36 72.35 84.08C72.6433 83.8 72.9233 83.3133 73.19 82.62L77.77 70.78C77.93 70.7933 78.1033 70.8 78.29 70.8C78.4767 70.8 78.65 70.7933 78.81 70.78ZM80.55 79.24V79.64H74.59L74.79 79.24H80.55ZM90.3355 70.6C91.0821 70.6 91.6555 70.68 92.0555 70.84C92.4555 71 92.8021 71.1733 93.0955 71.36C93.2555 71.4533 93.3821 71.5267 93.4755 71.58C93.5821 71.62 93.6821 71.64 93.7755 71.64C93.9088 71.64 94.0021 71.5667 94.0555 71.42C94.1221 71.2733 94.1755 71.0533 94.2155 70.76H94.6755C94.6621 71.0133 94.6421 71.3067 94.6155 71.64C94.6021 71.9733 94.5888 72.42 94.5755 72.98C94.5755 73.5267 94.5755 74.2533 94.5755 75.16H94.1155C94.0755 74.48 93.9221 73.8267 93.6555 73.2C93.4021 72.5733 93.0355 72.06 92.5555 71.66C92.0888 71.2467 91.4888 71.04 90.7555 71.04C90.1021 71.04 89.5555 71.2333 89.1155 71.62C88.6888 72.0067 88.4755 72.5267 88.4755 73.18C88.4755 73.74 88.6155 74.2133 88.8955 74.6C89.1755 74.9733 89.5688 75.34 90.0755 75.7C90.5955 76.0467 91.2088 76.4467 91.9155 76.9C92.5688 77.3267 93.1555 77.7533 93.6755 78.18C94.1955 78.5933 94.6021 79.0533 94.8955 79.56C95.2021 80.0667 95.3555 80.6867 95.3555 81.42C95.3555 82.2867 95.1421 83.0067 94.7155 83.58C94.2888 84.1533 93.7155 84.58 92.9955 84.86C92.2755 85.14 91.4888 85.28 90.6355 85.28C89.8488 85.28 89.2221 85.2 88.7555 85.04C88.3021 84.88 87.9088 84.7133 87.5755 84.54C87.2821 84.3533 87.0555 84.26 86.8955 84.26C86.7621 84.26 86.6621 84.3333 86.5955 84.48C86.5421 84.6267 86.4955 84.8467 86.4555 85.14H85.9955C86.0221 84.8333 86.0355 84.4733 86.0355 84.06C86.0488 83.6467 86.0555 83.1133 86.0555 82.46C86.0688 81.7933 86.0755 80.9533 86.0755 79.94H86.5355C86.5888 80.7933 86.7355 81.5933 86.9755 82.34C87.2288 83.0733 87.6088 83.6667 88.1155 84.12C88.6355 84.5733 89.3221 84.8 90.1755 84.8C90.6421 84.8 91.0621 84.72 91.4355 84.56C91.8221 84.3867 92.1288 84.1267 92.3555 83.78C92.5821 83.42 92.6955 82.9667 92.6955 82.42C92.6955 81.8733 92.5688 81.3933 92.3155 80.98C92.0621 80.5667 91.7088 80.18 91.2555 79.82C90.8021 79.46 90.2688 79.0933 89.6555 78.72C89.0288 78.32 88.4421 77.9133 87.8955 77.5C87.3488 77.0867 86.9088 76.62 86.5755 76.1C86.2555 75.5667 86.0955 74.9267 86.0955 74.18C86.0955 73.3533 86.2955 72.68 86.6955 72.16C87.0955 71.6267 87.6155 71.2333 88.2555 70.98C88.9088 70.7267 89.6021 70.6 90.3355 70.6ZM105.402 85V84.6C105.842 84.5733 106.169 84.52 106.382 84.44C106.609 84.36 106.756 84.2 106.822 83.96C106.902 83.72 106.942 83.36 106.942 82.88V72.96C106.942 72.4667 106.902 72.1067 106.822 71.88C106.756 71.64 106.609 71.48 106.382 71.4C106.169 71.3067 105.842 71.2533 105.402 71.24V70.84C105.762 70.8533 106.209 70.8667 106.742 70.88C107.276 70.8933 107.809 70.9 108.342 70.9C108.929 70.9 109.476 70.8933 109.982 70.88C110.502 70.8667 110.916 70.8533 111.222 70.84V71.24C110.796 71.2533 110.469 71.3067 110.242 71.4C110.029 71.48 109.882 71.64 109.802 71.88C109.722 72.1067 109.682 72.4667 109.682 72.96V82.88C109.682 83.36 109.722 83.72 109.802 83.96C109.882 84.2 110.029 84.36 110.242 84.44C110.469 84.52 110.796 84.5733 111.222 84.6V85C110.916 84.9733 110.502 84.96 109.982 84.96C109.476 84.9467 108.929 84.94 108.342 84.94C107.809 84.94 107.276 84.9467 106.742 84.96C106.209 84.96 105.762 84.9733 105.402 85ZM96.9622 85V84.6C97.4022 84.5733 97.7289 84.52 97.9422 84.44C98.1689 84.36 98.3155 84.2 98.3822 83.96C98.4622 83.72 98.5022 83.36 98.5022 82.88V72.96C98.5022 72.4667 98.4622 72.1067 98.3822 71.88C98.3155 71.64 98.1689 71.48 97.9422 71.4C97.7289 71.3067 97.4022 71.2533 96.9622 71.24V70.84C97.2955 70.8533 97.7222 70.8667 98.2422 70.88C98.7622 70.8933 99.3222 70.9 99.9222 70.9C100.456 70.9 100.982 70.8933 101.502 70.88C102.022 70.8667 102.449 70.8533 102.782 70.84V71.24C102.356 71.2533 102.029 71.3067 101.802 71.4C101.589 71.48 101.442 71.64 101.362 71.88C101.282 72.1067 101.242 72.4667 101.242 72.96V82.88C101.242 83.36 101.282 83.72 101.362 83.96C101.442 84.2 101.589 84.36 101.802 84.44C102.029 84.52 102.356 84.5733 102.782 84.6V85C102.449 84.9733 102.022 84.96 101.502 84.96C100.982 84.9467 100.456 84.94 99.9222 84.94C99.3222 84.94 98.7622 84.9467 98.2422 84.96C97.7222 84.96 97.2955 84.9733 96.9622 85ZM100.142 78.08V77.68H108.042V78.08H100.142ZM118.505 70.84V71.24C118.078 71.2533 117.752 71.3067 117.525 71.4C117.312 71.48 117.165 71.64 117.085 71.88C117.005 72.1067 116.965 72.4667 116.965 72.96V82.88C116.965 83.36 117.005 83.72 117.085 83.96C117.165 84.2 117.312 84.36 117.525 84.44C117.752 84.52 118.078 84.5733 118.505 84.6V85C118.172 84.9733 117.745 84.96 117.225 84.96C116.705 84.9467 116.178 84.94 115.645 84.94C115.045 84.94 114.485 84.9467 113.965 84.96C113.445 84.96 113.018 84.9733 112.685 85V84.6C113.125 84.5733 113.452 84.52 113.665 84.44C113.892 84.36 114.038 84.2 114.105 83.96C114.185 83.72 114.225 83.36 114.225 82.88V72.96C114.225 72.4667 114.185 72.1067 114.105 71.88C114.038 71.64 113.892 71.48 113.665 71.4C113.452 71.3067 113.125 71.2533 112.685 71.24V70.84C113.018 70.8533 113.445 70.8667 113.965 70.88C114.485 70.8933 115.045 70.9 115.645 70.9C116.178 70.9 116.705 70.8933 117.225 70.88C117.745 70.8667 118.172 70.8533 118.505 70.84ZM126.854 70.56C128.214 70.56 129.407 70.8467 130.434 71.42C131.46 71.9933 132.254 72.82 132.814 73.9C133.387 74.9667 133.674 76.2667 133.674 77.8C133.674 79.2933 133.38 80.6 132.794 81.72C132.22 82.84 131.414 83.7133 130.374 84.34C129.347 84.9667 128.167 85.28 126.834 85.28C125.474 85.28 124.28 84.9933 123.254 84.42C122.227 83.8467 121.427 83.02 120.854 81.94C120.294 80.86 120.014 79.56 120.014 78.04C120.014 76.5467 120.307 75.24 120.894 74.12C121.48 73 122.287 72.1267 123.314 71.5C124.34 70.8733 125.52 70.56 126.854 70.56ZM126.774 70.92C125.987 70.92 125.3 71.22 124.714 71.82C124.14 72.42 123.694 73.2467 123.374 74.3C123.054 75.3533 122.894 76.5733 122.894 77.96C122.894 79.3733 123.074 80.6067 123.434 81.66C123.794 82.7 124.28 83.5067 124.894 84.08C125.507 84.64 126.18 84.92 126.914 84.92C127.7 84.92 128.38 84.62 128.954 84.02C129.54 83.42 129.994 82.5933 130.314 81.54C130.634 80.4733 130.794 79.2533 130.794 77.88C130.794 76.4533 130.614 75.22 130.254 74.18C129.894 73.14 129.407 72.34 128.794 71.78C128.194 71.2067 127.52 70.92 126.774 70.92ZM148.145 70.84V71.24C147.719 71.28 147.392 71.38 147.165 71.54C146.939 71.6867 146.785 71.9267 146.705 72.26C146.639 72.58 146.605 73.04 146.605 73.64V85.06C146.485 85.0467 146.352 85.04 146.205 85.04C146.072 85.04 145.925 85.0467 145.765 85.06L137.185 73.4V82.04C137.185 82.68 137.225 83.18 137.305 83.54C137.385 83.8867 137.559 84.14 137.825 84.3C138.105 84.4467 138.525 84.5467 139.085 84.6V85C138.832 84.9733 138.505 84.96 138.105 84.96C137.705 84.9467 137.325 84.94 136.965 84.94C136.645 84.94 136.319 84.9467 135.985 84.96C135.665 84.96 135.399 84.9733 135.185 85V84.6C135.625 84.5467 135.952 84.4467 136.165 84.3C136.392 84.1533 136.539 83.9133 136.605 83.58C136.685 83.2467 136.725 82.7867 136.725 82.2V72.96C136.725 72.4667 136.685 72.1067 136.605 71.88C136.539 71.64 136.392 71.48 136.165 71.4C135.952 71.3067 135.625 71.2533 135.185 71.24V70.84C135.399 70.8533 135.665 70.8667 135.985 70.88C136.319 70.8933 136.645 70.9 136.965 70.9C137.272 70.9 137.572 70.8933 137.865 70.88C138.159 70.8667 138.419 70.8533 138.645 70.84L146.145 80.82V73.8C146.145 73.1467 146.105 72.6467 146.025 72.3C145.945 71.9533 145.772 71.7 145.505 71.54C145.239 71.38 144.819 71.28 144.245 71.24V70.84C144.499 70.8533 144.825 70.8667 145.225 70.88C145.639 70.8933 146.019 70.9 146.365 70.9C146.699 70.9 147.025 70.8933 147.345 70.88C147.679 70.8667 147.945 70.8533 148.145 70.84Z" fill="black"/>
</svg>
